<?xml version="1.0" encoding="utf-8"?>
<!-- Generator: Adobe Illustrator 18.1.1, SVG Export Plug-In . SVG Version: 6.00 Build 0)  -->
<svg version="1.1" xmlns="http://www.w3.org/2000/svg" xmlns:xlink="http://www.w3.org/1999/xlink" x="0px" y="0px"
	 viewBox="0 0 458 549" enable-background="new 0 0 458 549" xml:space="preserve">
<g id="Layer_2">
	<path fill="#FFFFFF" d="M64.7,361.6l32-66.3l38.7-65.7l27.3-49.3l-5.3-51.3l2-66L216,25l50.7,8l32,55.3L316,169l29.3,66.7
		l49.3,89.3c0,0,18,57.3,20,80c2,22.7,12,43.3,12,43.3l24.7,14l4,7.3v7.3L432,491l-33.3,18l-38,26.7L338,543l-21.3-3.3l-9.3-8
		L294.7,521l-19.3-4l-75.3,1.3L164.7,531L140,543l-57.3-16L22,514.3L6,507v-9.3l8-20l2-15.3l-4.7-10.7L6,441l3.3-13.3l20-2.7l12-2
		l8-4.7l7.3-2c0,0,2.6-16.6,3.7-27.3c2.7-27.3,5.7-22.7,5.7-22.7l2.7-4.7"/>
</g>
<g id="Layer_1">
	<g>
		<path fill="#2F1062" d="M445.1,454.3c4,2.4,7.1,4.8,9.3,7.3c2.2,2.5,3.4,4.9,3.6,7.2c0.2,2.3-0.1,4.5-0.7,6.7
			c-0.7,2.2-2.2,4.4-4.6,6.6c-2.4,2.2-4.7,4.1-7,5.8c-2.3,1.7-5.3,3.5-9,5.5c-3.7,2-6.8,3.6-9.4,4.9c-2.6,1.3-5.8,2.8-9.6,4.6
			c-3.8,1.8-6.5,3.1-8.1,3.9c-7.6,3.8-16.1,9.4-25.6,16.8c-9.5,7.4-17,13.8-22.6,19.2c-3.4,3.2-10.2,5.1-20.4,5.8
			c-10.2,0.7-19.1-0.7-26.7-4.3c-3.6-1.8-6.5-4.1-8.8-7c-2.3-2.9-3.9-5.4-4.9-7.6c-1-2.2-3.2-4.1-6.6-5.8c-3.4-1.7-8.1-2.6-14.1-2.8
			c-8.8-0.2-21.8-0.3-38.9-0.3c-3.8,0-9.5,0.1-17.1,0.4c-7.6,0.3-13.4,0.5-17.4,0.7c-8.8,0.2-16.7,1.7-23.8,4.5
			c-7.1,2.8-12.4,5.8-16,9c-3.6,3.2-7.9,6-13,8.5c-5.1,2.5-10.4,3.6-16,3.4c-5.8-0.2-16.9-3.3-33.2-9.3c-16.4-6-31-10.3-43.7-12.9
			c-3.8-0.8-8.9-1.8-15.3-2.8c-6.4-1.1-11.4-2-15-2.7c-3.6-0.7-7.5-1.6-11.8-2.8c-4.3-1.2-7.6-2.6-10-4.3c-2.4-1.7-4.1-3.6-5.1-5.8
			c-2-4.6-1.3-11.2,2.1-19.9c3.4-8.7,5.2-14.1,5.4-16.3c0.2-3.2-0.2-7.2-1.2-12c-1-4.8-2-9-3-12.7c-1-3.7-1.5-7.3-1.3-10.9
			c0.1-3.6,1.1-6.3,3.1-8.1c2.8-2.4,8.5-3.8,17.1-4.2c8.6-0.4,14.6-1.6,18-3.6c6-3.6,10.2-7.1,12.6-10.5c2.4-3.4,3.6-8.5,3.6-15.3
			c4.2,14.6,1,25.2-9.6,31.7c-6.4,4-14.7,5.5-24.9,4.5c-6.8-0.6-11.1,0.4-12.9,3c-2.6,3-2.1,8.7,1.5,17.1c0.4,1.2,1.2,3,2.4,5.4
			c1.2,2.4,2,4.2,2.5,5.4c0.5,1.2,0.9,2.9,1.3,5.1c0.4,2.2,0.5,4.4,0.3,6.6c0,3-1.7,7.9-5.1,14.7c-3.4,6.8-4.8,11.6-4.2,14.4
			c0.6,3.4,4.3,6,11.1,7.8c4,1.2,12.4,3,25.3,5.5c12.9,2.5,22.8,4.5,29.8,6.1c4.8,1.2,12.2,3.4,22.2,6.6c10,3.2,18.2,5.5,24.7,6.9
			c6.5,1.4,12,1.8,16.6,1.2c8.6-1.2,15-4,19.3-8.4c4.3-4.4,6.6-9.2,6.9-14.4c0.3-5.2-0.4-11-2.2-17.5c-1.8-6.5-3.7-11.7-5.7-15.6
			c-2-3.9-4-7.5-6-10.9c-24.2-37.9-41-62.1-50.6-72.5c-13.6-14.8-24.9-18.8-33.8-12c-2.2,1.8-3.7,0.3-4.5-4.5
			c-0.6-3.2-0.8-7-0.6-11.4c0.2-5.8,1.2-11,3-15.6c1.8-4.6,4.2-9.3,7.2-14.1c3-4.8,5.2-9,6.6-12.6c1.6-4.2,4.2-11.4,7.9-21.6
			c3.7-10.2,6.6-18,8.8-23.4c2.2-5.4,5.2-11.5,9-18.3c3.8-6.8,7.7-12.2,11.7-16.2c22-28.6,34.3-48,37.1-58.4
			c-2.4-22.4-4-53.3-4.8-92.8c-0.4-18,2-33.1,7.2-45.4c5.2-12.3,15.8-22.7,31.7-31.3c7.8-4.2,18.2-6.3,31.1-6.3
			c10.6-0.2,21.2,1.2,31.7,4c10.6,2.9,19.5,7,26.7,12.4c11.4,8.4,20.5,20.5,27.4,36.4c6.9,15.9,9.8,30.6,8.8,44.2
			c-1,19,2,40.3,9,64.1c6.8,22.6,20.1,44.3,39.8,65.3c11,11.8,20.9,28.1,29.8,48.8c8.9,20.8,14.8,39.8,17.8,57.2
			c1.6,9.8,2.1,18.2,1.5,25.3c-0.6,7.1-1.8,12.6-3.6,16.6c-1.8,4-3.8,6.2-6,6.6c-2,0.4-4.3,2.3-7,5.7c-2.7,3.4-5.4,6.9-8.1,10.6
			c-2.7,3.7-6.7,7-12.1,10c-5.4,3-11.5,4.4-18.3,4.2c-3.6-0.2-6.7-0.7-9.4-1.5c-2.7-0.8-4.9-2.1-6.7-4c-1.8-1.9-3.1-3.4-4-4.6
			c-0.9-1.2-2-3.2-3.4-6.1c-1.4-2.9-2.3-4.8-2.7-5.8c-4.4-7.4-8.5-10.4-12.3-9c-3.8,1.4-6.6,6.3-8.4,14.7
			c-1.8,8.4-1.1,18.1,2.1,29.1c4,14,4.1,33.4,0.3,58.4c-2,13-0.2,23,5.4,30.1c5.6,7.1,12.9,10.4,21.9,9.9c9-0.5,17.5-4,25.5-10.6
			c11.8-9.8,20.7-16.4,26.8-19.9c6.1-3.5,16.4-7.7,31-12.7c10.6-3.6,18.3-7.2,23.1-10.9c4.8-3.7,6.6-7.1,5.5-10.3
			c-1.1-3.2-3.6-6-7.5-8.5c-3.9-2.5-9-4.8-15.4-7c-6.6-2.2-11.5-7-14.8-14.4c-3.3-7.4-4.8-14.6-4.5-21.7c0.3-7.1,1.8-11.8,4.6-14.2
			c0.2,6.2,1,11.8,2.4,16.9c1.4,5.1,2.8,9.1,4.3,12.1c1.5,3,3.5,5.8,6.1,8.5c2.6,2.7,4.7,4.6,6.3,5.7c1.6,1.1,3.7,2.4,6.4,3.9
			C442.8,453,444.5,453.9,445.1,454.3z M375.6,375c0-3.6-5.5-7.8-16.5-12.6c0.8-3,1.5-5.7,2.2-8.2c0.7-2.5,1.2-5.1,1.5-7.8
			c0.3-2.7,0.6-4.8,0.9-6.4c0.3-1.6,0.3-3.8,0.2-6.7c-0.2-2.9-0.3-4.8-0.3-5.8c0-1-0.4-3.2-1-6.6c-0.7-3.4-1.1-5.4-1.2-6.1
			c-0.1-0.7-0.6-3.2-1.5-7.5c-0.9-4.3-1.5-6.9-1.6-7.9c-2-9.6-6.7-19.9-14.1-30.8c-7.4-11-14.6-18.5-21.6-22.5
			c4.8,4,10.5,12.3,17.1,24.9c17.4,32.3,22.8,60.1,16.2,83.3c-2.2,8-7.2,12.2-15,12.6c-6.2,0.8-10-1-11.5-5.5
			c-1.5-4.5-2.3-12.8-2.4-25c-0.1-12.2-1.2-22.9-3.4-32c-1.8-7.8-3.7-14.7-5.8-20.7c-2.1-6-4-10.5-5.8-13.6
			c-1.8-3.1-3.3-5.5-4.6-7.3c-1.3-1.8-2.6-3.3-3.9-4.5c-1.3-1.2-2-1.9-2.2-2.1c-2.8-12.4-5.9-22.7-9.3-30.8
			c-3.4-8.2-6.3-13.8-8.8-16.8c-2.5-3-4.8-6.3-7-9.9c-2.2-3.6-3.7-7.6-4.5-12c-0.8-4.2-0.2-9.5,1.8-16c2-6.5,2.4-11.4,1.3-14.8
			c-1.1-3.4-5.5-5.9-13.3-7.5c-3-0.6-7.4-2.4-13.3-5.4c-5.9-3-9.4-4.6-10.6-4.8c-1.6-0.2-2.7-2.8-3.3-7.8c-0.6-5,0.2-10.1,2.4-15.3
			c2.2-5.2,5.8-7.9,10.8-8.1c7.4-0.6,12.5,2.4,15.3,9c2.8,6.6,3.2,12.4,1.2,17.4c-2.2,3.8-2.4,6.4-0.6,7.9c1.8,1.5,4.8,1.5,9,0.1
			c2.6-0.8,3.9-4.4,3.9-10.8c0-6.4,0-10.1,0-11.1c-1-6-2.3-11-4-15c-1.7-4-3.8-7-6.3-9.1c-2.5-2.1-4.8-3.6-7-4.5
			c-2.2-0.9-4.9-1.6-8.1-2.2c-21.4,1.6-30.2,15-26.7,40.1c0,3-0.1,4.5-0.3,4.5c-1.8-1.8-4.7-2.8-8.8-3.1c-4.1-0.3-7.4-0.2-9.9,0.1
			c-2.5,0.4-4-0.1-4.6-1.5c0.2-11.4-1.4-20.4-4.8-27c-3.4-6.6-7.9-10-13.5-10.2c-5.4-0.2-9.5,2.5-12.4,8.2
			c-2.9,5.7-4.5,11.6-4.9,17.8c-0.2,3,0.1,6.7,1,11.1c0.9,4.4,2.2,8.1,3.9,11.2c1.7,3.1,3.2,4.4,4.6,4c2-0.6,3.6-2,4.8-4.2
			c0.8-1.8,0.1-2.6-2.1-2.4c-1.4,0-2.9-1.4-4.6-4.3c-1.7-2.9-2.6-6.2-2.8-10c-0.2-4.4,0.7-8.1,2.7-11.1c2-3,5.4-4.4,10.2-4.2
			c3.4,0,6.1,2.1,8.1,6.3c2,4.2,2.9,8.1,2.8,11.7c-0.1,3.6-0.3,5.8-0.4,6.6c-4.4,3-7.5,5.9-9.3,8.7c-1.6,2.4-4.3,4.7-8.2,7
			c-3.9,2.3-5.9,3.5-6.1,3.7c-2.6,2.8-4.1,5.5-4.6,8.1c-0.5,2.6,0.2,4.4,2.2,5.4c2.8,1.6,5.3,3.5,7.5,5.8c2.2,2.3,3.8,4.2,4.8,5.7
			c1,1.5,2.8,2.8,5.5,3.9c2.7,1.1,6.2,1.8,10.6,1.9c9.4,0.4,19.6-1.1,30.5-4.5c0.4-0.2,2.7-0.9,6.9-2.1c4.2-1.2,7.6-2.2,10.3-3.1
			c2.7-0.9,5.6-2.2,8.8-3.9c3.2-1.7,5.3-3.4,6.3-5.2c1.8-2.8,3.8-3.6,6-2.4c1,0.6,1.6,1.5,1.9,2.5c0.3,1.1,0,2.3-0.9,3.6
			c-0.9,1.3-2.5,2.2-4.9,2.8c-4,1.2-9.6,3.3-16.9,6.4c-7.3,3.1-11.8,5-13.6,5.8c-8.8,3.8-15.8,6.1-21,6.9c-5,1-12.9,0.8-23.7-0.6
			c-2-0.4-2.9-0.2-2.7,0.6c0.2,0.8,1.9,2.7,5.1,5.7c5,4.6,11.7,6.8,20.1,6.6c3.4-0.2,7-0.9,10.8-2.1c3.8-1.2,7.4-2.6,10.8-4.2
			c3.4-1.6,6.7-3.3,10-5.2c3.3-1.9,6.3-3.6,9-5.1c2.7-1.5,5.1-2.7,7.3-3.6c2.2-0.9,3.9-1.1,5.2-0.7c1.3,0.4,2.1,1.5,2.5,3.3
			c0,0.4-0.1,0.9-0.3,1.3c-0.2,0.5-0.6,1-1.2,1.5c-0.6,0.5-1.2,1-1.8,1.3c-0.6,0.4-1.5,0.9-2.5,1.5c-1.1,0.6-2,1-2.7,1.3
			c-0.7,0.3-1.7,0.8-3,1.5c-1.3,0.7-2.2,1.2-2.8,1.3c-5.6,2.8-12.3,7.2-20.2,13.2c-7.9,6-14.5,10.3-19.9,12.9
			c-5.4,2.6-10.3,2.7-14.7,0.3c-4.2-2.2-10.5-9.5-18.9-21.9c-4.4-6.2-6.9-8.4-7.5-6.6c-0.2,0.6-0.3,1.6-0.3,3c0,5-1.5,10.6-4.5,16.9
			c-3,6.3-5.9,11.8-8.8,16.6c-2.9,4.8-5,10.6-6.3,17.4c-1.3,6.8-0.1,13.1,3.4,18.9c-4.6,1.2-10.8,10.2-18.7,27
			c-7.9,16.8-12.6,30.8-14.2,42.2c-0.4,3.6-0.6,10.5-0.4,20.7c0.1,10.2-0.4,16.1-1.6,17.7c-1.6,4.8-4.5,5.1-8.7,0.9
			c-6.4-6.2-10-15.6-10.8-28.2c-0.4-5.6,0-11.2,1.2-16.8c0.8-3.8,0.7-5.6-0.3-5.4l-1.2,1.5c-7.2,13-6.2,29.6,3,49.7
			c1,2.4,3.5,5.2,7.5,8.4c4,3.2,6.4,5.2,7.2,6c4,4.6,14.4,13.6,31.1,27.1c16.8,13.5,26.1,21.1,27.9,22.9c3.2,3,4.9,6.8,5.2,11.4
			c0.3,4.6-1.1,8.9-4.2,12.9c-3.1,4-7.6,6.3-13.6,6.9c1.6,3,4.5,7.4,8.7,13.3c4.2,5.9,7,11.3,8.4,16.2c1.4,4.9,2.1,11.9,2.1,21.1
			c9.2-4.8,9.9-14,2.1-27.6c-0.8-1.6-1.8-3.2-3.1-4.8c-1.3-1.6-2.2-2.8-2.8-3.6c-0.6-0.8-0.8-1.4-0.6-1.8c0.6-1,1.9-1.9,3.9-2.8
			c2-0.9,4-0.7,6,0.8c9.2,10.4,25.8,14,49.7,10.8c26.6-3,44.2-11.7,53-26.1c4.6-7.6,8-10.6,10.2-9c2.4,1.2,3.4,6.4,3,15.6
			c-0.2,5-2.5,14.2-6.9,27.6c-1.8,4.6-2.4,8.3-1.8,11.2c0.6,2.9,3,4.4,7.2,4.6c0.6-3.8,2-11.5,4.3-23.1c2.3-11.6,3.6-20.6,4-27
			c0.4-4.2-0.3-11.5-1.9-22c-1.7-10.5-2.4-20.2-2.2-29.1c0.2-8.9,2.5-15.9,6.9-21.1c3-3.6,8.1-5.4,15.3-5.4
			c0.2-7.4,3.6-12.7,10.3-15.9c6.7-3.2,13.9-4.2,21.7-3.1C365.4,369.3,371.4,371.6,375.6,375z M119.5,267.4
			c-0.8-0.2-1.4,0.1-1.8,0.9c-0.4,0.8-0.9,2-1.3,3.7c-0.5,1.7-1,3-1.6,4c-0.6,1-1.6,2.3-3,3.9c-1.4,2-1.5,3.2-0.3,3.6
			c0.8,0.2,2-0.5,3.7-2.1c1.7-1.6,2.9-3.4,3.7-5.4c0.2-0.6,0.4-1.3,0.6-2.1c0.2-0.8,0.4-1.4,0.6-1.8c0.2-0.4,0.3-0.8,0.4-1.3
			c0.1-0.5,0.1-0.9,0.1-1.2c0-0.3,0-0.6,0-0.9c0-0.3-0.1-0.5-0.3-0.7C120.2,267.8,119.9,267.6,119.5,267.4z M187.5,127.3
			c0.6-3.4,0.3-6.4-0.7-9c-1.1-2.6-2.2-4.1-3.4-4.5c-1.8-0.4-2.7,0.3-2.7,2.1c0.4,1,0.9,1.6,1.5,1.8c2,0,2.7,1.5,2.1,4.5
			c-0.6,4,0.2,6,2.4,6C187.2,128.2,187.5,127.9,187.5,127.3z M198.6,135.4c-2.2,0.2-3.7,1.2-4.6,3.1c-0.9,1.9-1.8,2.8-2.5,2.8
			c-1,0.2-1.5-0.3-1.5-1.5c0-2.4,1.9-3.9,5.7-4.5C196.6,135.4,197.6,135.4,198.6,135.4z M224.6,139.6c-0.8,0.2-1.9-0.4-3.4-1.9
			c-1.5-1.5-3.2-1.9-5.2-1.3c4.8-2.2,8-2,9.6,0.6C226.1,138.1,225.8,139,224.6,139.6z M259.7,122.5c0-2.2-0.5-4.1-1.5-5.8
			c-1-1.7-2.1-2.9-3.3-3.7c-1.2-0.8-2.1-1.1-2.7-0.9c-2.8,0.2-3.5,0.9-2.1,2.1c0.4,0.2,0.8,0.4,1.2,0.6c2.8,0.8,4.6,3.9,5.4,9.3
			c0,0.6,0.8,0.4,2.4-0.6L259.7,122.5z M275.8,52.7c0-0.4-0.3-0.9-0.7-1.5c-0.5-0.6-1.4-1.3-2.7-2.1c-1.3-0.8-2.2-1.4-2.8-1.8
			c-3-3-5.4-4.5-7.2-4.5c-1.8,0.2-2.9,1-3.4,2.2c-0.5,1.3-0.6,2.6-0.3,3.9c0.3,1.3,0.2,2.5-0.1,3.7c-0.2,0.8-0.8,1.8-1.8,3.1
			c-1,1.3-1.6,2.2-1.8,2.7c-0.2,0.5,0.1,1.3,0.9,2.5c0.8,0.6,1.6,0.6,2.4,0c0.8-0.6,1.9-1.5,3.3-2.7c1.4-1.2,2.9-2.1,4.5-2.7
			c0.2-0.2,1.1-0.3,2.7-0.3c1.6,0,3.1-0.2,4.5-0.6C274.5,54.4,275.4,53.7,275.8,52.7z M313,186.3c-0.4-1.6-1-2.7-1.9-3.4
			c-0.9-0.7-2.2-1.2-3.9-1.5c-1.7-0.3-3.1-0.8-4.3-1.6c-1-0.6-1.9-1.4-2.8-2.4c-0.9-1-1.6-1.8-2.1-2.4c-0.5-0.6-1-1.2-1.6-1.9
			c-0.6-0.7-1-1.1-1.2-1.2c-0.2-0.1-0.6,0.1-1.2,0.4c-2.8,3.2-2.1,7.5,2.1,13c4.2,5.5,8.1,8.6,11.7,9.4c1.8,0.2,3.2-0.6,4.3-2.4
			C313,190.5,313.4,188.5,313,186.3z"/>
	</g>
</g>
</svg>
